<svg xmlns="http://www.w3.org/2000/svg" viewBox="0 0 1826 208" role="img" aria-label="Syrka" preserveAspectRatio="xMidYMid meet">
  <path fill="#FFFFFF" fill-rule="evenodd" clip-rule="evenodd" d="M1743 27 L1742 28 L1742 29 L1741 30 L1741 32 L1740 33 L1740 34 L1737 39 L1737 41 L1734 46 L1734 48 L1733 49 L1733 50 L1732 51 L1732 52 L1731 53 L1731 54 L1728 59 L1728 61 L1727 62 L1727 63 L1726 64 L1726 65 L1723 70 L1723 72 L1722 73 L1722 74 L1719 79 L1719 81 L1718 82 L1718 83 L1716 86 L1716 88 L1715 89 L1715 90 L1712 95 L1712 97 L1711 98 L1711 99 L1710 100 L1710 101 L1709 102 L1709 103 L1706 108 L1706 110 L1705 111 L1705 112 L1702 117 L1702 119 L1699 124 L1699 126 L1698 127 L1698 128 L1697 129 L1697 130 L1696 131 L1696 132 L1695 133 L1695 134 L1692 139 L1692 141 L1691 142 L1691 143 L1690 144 L1690 145 L1687 150 L1687 152 L1686 153 L1686 154 L1683 159 L1683 161 L1682 162 L1682 163 L1679 168 L1679 170 L1678 171 L1679 172 L1696 172 L1698 170 L1698 169 L1700 166 L1700 164 L1701 163 L1701 162 L1704 157 L1704 155 L1706 152 L1706 150 L1707 149 L1707 148 L1708 147 L1708 146 L1711 141 L1711 139 L1714 134 L1714 132 L1715 131 L1715 130 L1716 129 L1716 128 L1719 123 L1719 121 L1721 118 L1721 116 L1722 115 L1722 114 L1725 109 L1725 107 L1726 106 L1726 105 L1729 100 L1729 98 L1730 97 L1730 96 L1731 95 L1731 94 L1734 89 L1734 87 L1737 82 L1737 80 L1740 75 L1740 73 L1743 68 L1743 66 L1746 61 L1746 59 L1747 58 L1747 57 L1748 56 L1748 55 L1749 54 L1749 53 L1752 48 L1753 49 L1753 50 L1754 51 L1754 52 L1757 57 L1757 59 L1759 62 L1759 64 L1760 65 L1760 66 L1763 71 L1763 73 L1764 74 L1764 75 L1767 80 L1767 82 L1768 83 L1768 84 L1769 85 L1769 87 L1772 92 L1772 94 L1774 97 L1774 99 L1775 100 L1775 101 L1776 102 L1776 103 L1779 108 L1779 110 L1780 111 L1780 112 L1781 113 L1781 114 L1784 119 L1784 121 L1785 122 L1785 123 L1788 128 L1788 130 L1789 131 L1789 132 L1790 133 L1790 135 L1791 136 L1791 137 L1792 138 L1792 139 L1795 144 L1795 146 L1798 151 L1798 153 L1799 154 L1799 155 L1800 156 L1800 157 L1803 162 L1803 164 L1805 167 L1805 169 L1806 170 L1806 171 L1808 171 L1809 172 L1815 172 L1816 171 L1825 171 L1825 170 L1824 169 L1824 167 L1822 164 L1822 162 L1819 157 L1819 155 L1818 154 L1818 153 L1817 152 L1817 151 L1814 146 L1814 144 L1813 143 L1813 142 L1810 137 L1810 135 L1809 134 L1809 133 L1806 128 L1806 126 L1805 125 L1805 124 L1802 119 L1802 117 L1801 116 L1801 115 L1800 114 L1800 113 L1797 108 L1797 106 L1796 105 L1796 104 L1795 103 L1795 102 L1794 101 L1794 100 L1791 95 L1791 93 L1790 92 L1790 91 L1789 90 L1789 88 L1788 87 L1788 86 L1787 85 L1787 84 L1784 79 L1784 77 L1783 76 L1783 75 L1782 74 L1782 73 L1781 72 L1781 71 L1778 66 L1778 64 L1776 61 L1776 59 L1773 54 L1773 52 L1772 51 L1772 50 L1770 47 L1770 45 L1769 44 L1769 43 L1766 38 L1766 36 L1763 31 L1763 29 L1762 28 L1762 27 Z M1419 27 L1419 171 L1426 171 L1427 172 L1436 172 L1437 171 L1437 129 L1439 127 L1440 127 L1466 101 L1471 106 L1471 107 L1474 110 L1474 111 L1477 114 L1477 115 L1481 119 L1481 120 L1485 124 L1485 125 L1488 128 L1488 129 L1491 132 L1491 133 L1494 136 L1494 137 L1502 146 L1502 147 L1505 150 L1505 151 L1507 153 L1507 154 L1511 158 L1511 159 L1515 163 L1515 164 L1518 167 L1518 168 L1522 172 L1523 171 L1524 172 L1536 172 L1537 171 L1538 171 L1539 172 L1543 172 L1542 169 L1539 166 L1539 165 L1536 162 L1536 161 L1532 157 L1532 156 L1529 153 L1529 152 L1526 149 L1526 148 L1522 144 L1522 143 L1519 140 L1519 139 L1515 135 L1515 134 L1511 130 L1511 129 L1508 126 L1508 125 L1504 121 L1504 120 L1500 116 L1500 115 L1497 112 L1497 111 L1493 107 L1493 106 L1490 103 L1490 102 L1486 98 L1486 97 L1483 94 L1483 93 L1479 89 L1479 88 L1497 70 L1498 70 L1501 67 L1501 66 L1505 62 L1506 62 L1509 59 L1509 58 L1511 56 L1512 56 L1540 28 L1540 27 L1516 27 L1510 33 L1510 34 L1456 88 L1456 89 L1452 93 L1451 93 L1448 96 L1448 97 L1444 101 L1443 101 L1442 102 L1442 103 L1438 107 L1437 106 L1437 27 Z M1144 27 L1144 171 L1145 172 L1160 172 L1161 171 L1161 169 L1162 168 L1162 129 L1161 128 L1161 126 L1162 125 L1162 116 L1163 115 L1201 115 L1204 118 L1204 119 L1206 121 L1206 122 L1209 125 L1209 126 L1211 128 L1211 129 L1214 132 L1214 133 L1216 135 L1216 136 L1218 138 L1218 139 L1221 142 L1221 143 L1223 145 L1223 146 L1225 148 L1225 149 L1227 151 L1227 152 L1229 154 L1229 155 L1231 157 L1231 158 L1234 161 L1234 162 L1237 165 L1238 168 L1241 171 L1247 171 L1248 172 L1261 172 L1262 171 L1260 169 L1260 168 L1258 166 L1258 165 L1256 163 L1256 162 L1254 160 L1254 159 L1248 152 L1248 151 L1246 149 L1246 148 L1244 146 L1244 145 L1242 143 L1242 142 L1239 139 L1239 138 L1237 136 L1237 135 L1235 133 L1235 132 L1232 129 L1232 128 L1230 126 L1230 125 L1228 123 L1228 122 L1226 120 L1226 119 L1223 116 L1223 115 L1221 113 L1221 112 L1222 111 L1226 111 L1227 110 L1229 110 L1230 109 L1232 109 L1233 108 L1234 108 L1235 107 L1238 106 L1240 104 L1241 104 L1244 101 L1245 101 L1249 97 L1249 96 L1252 93 L1252 92 L1253 91 L1253 90 L1256 85 L1256 83 L1257 82 L1257 78 L1258 77 L1258 64 L1257 63 L1257 58 L1256 57 L1256 55 L1255 54 L1255 53 L1254 52 L1254 51 L1253 50 L1252 47 L1250 45 L1250 44 L1244 38 L1243 38 L1240 35 L1237 34 L1235 32 L1233 32 L1230 30 L1228 30 L1227 29 L1225 29 L1224 28 L1220 28 L1219 27 Z M1162 45 L1163 44 L1169 44 L1170 43 L1210 43 L1211 44 L1217 44 L1218 45 L1220 45 L1221 46 L1223 46 L1224 47 L1225 47 L1226 48 L1229 49 L1236 56 L1236 57 L1238 60 L1238 62 L1239 63 L1239 66 L1240 67 L1240 75 L1239 76 L1239 79 L1238 80 L1238 81 L1237 82 L1236 85 L1229 92 L1228 92 L1226 94 L1225 94 L1224 95 L1222 95 L1219 97 L1216 97 L1215 98 L1208 98 L1207 99 L1163 99 L1161 97 L1161 96 L1162 95 L1162 94 L1161 93 L1162 92 L1162 71 L1161 70 L1161 64 L1162 63 L1162 55 L1161 54 L1161 50 L1162 49 Z M849 27 L849 28 L851 30 L851 31 L853 33 L853 34 L856 37 L856 38 L858 40 L858 41 L860 43 L860 44 L862 46 L862 47 L865 50 L865 51 L867 53 L867 54 L870 57 L870 58 L872 60 L872 61 L874 63 L874 64 L876 66 L876 67 L878 69 L878 70 L880 72 L880 73 L882 75 L882 76 L885 79 L885 80 L887 82 L887 83 L889 85 L889 86 L892 89 L893 92 L895 94 L895 95 L897 97 L897 98 L899 100 L899 101 L902 104 L902 105 L904 107 L904 108 L907 111 L907 112 L909 114 L909 171 L910 171 L911 172 L926 172 L927 171 L927 115 L928 114 L928 113 L930 111 L930 110 L932 108 L932 107 L934 105 L934 104 L937 101 L937 100 L939 98 L939 97 L941 95 L941 94 L943 92 L943 91 L946 88 L946 87 L948 85 L948 84 L950 82 L950 81 L952 79 L952 78 L954 76 L954 75 L957 72 L957 71 L959 69 L959 68 L961 66 L961 65 L964 62 L964 61 L966 59 L966 58 L968 56 L968 55 L970 53 L970 52 L972 50 L972 49 L975 46 L975 45 L977 43 L977 42 L979 40 L979 39 L981 37 L981 36 L984 33 L984 32 L986 30 L987 27 L966 27 L964 29 L964 30 L962 32 L962 33 L958 38 L957 41 L955 43 L955 44 L953 46 L953 47 L950 50 L950 51 L948 53 L948 54 L946 56 L946 57 L944 59 L944 60 L942 62 L942 63 L940 65 L940 66 L938 68 L938 69 L936 71 L936 72 L934 74 L934 75 L932 77 L932 78 L930 80 L930 81 L928 83 L928 84 L926 86 L926 87 L924 89 L924 90 L922 92 L922 93 L918 98 L917 97 L917 96 L915 94 L915 93 L913 91 L912 88 L910 86 L910 85 L906 80 L906 79 L903 76 L903 75 L901 73 L901 72 L899 70 L899 69 L897 67 L897 66 L893 61 L892 58 L889 55 L889 54 L887 52 L887 51 L885 49 L885 48 L883 46 L883 45 L881 43 L881 42 L879 40 L879 39 L877 37 L877 36 L875 34 L875 33 L871 28 L871 27 Z M628 26 L627 27 L624 27 L623 28 L621 28 L620 29 L619 29 L618 30 L617 30 L616 31 L615 31 L614 32 L611 33 L608 36 L607 36 L600 43 L600 44 L598 46 L598 47 L595 52 L595 54 L594 55 L594 58 L593 59 L593 74 L594 75 L594 78 L596 81 L596 83 L598 85 L598 86 L600 88 L600 89 L603 92 L604 92 L607 95 L608 95 L610 97 L611 97 L616 100 L618 100 L621 102 L623 102 L624 103 L626 103 L627 104 L630 104 L631 105 L633 105 L634 106 L637 106 L638 107 L641 107 L642 108 L646 108 L647 109 L650 109 L651 110 L654 110 L655 111 L657 111 L658 112 L660 112 L661 113 L663 113 L664 114 L667 115 L672 119 L673 119 L675 121 L675 122 L677 124 L677 125 L679 128 L679 132 L680 133 L680 135 L679 136 L679 140 L678 141 L678 143 L676 145 L676 146 L671 151 L670 151 L668 153 L667 153 L666 154 L664 154 L663 155 L661 155 L660 156 L657 156 L656 157 L636 157 L635 156 L632 156 L631 155 L628 155 L627 154 L625 154 L624 153 L622 153 L621 152 L620 152 L619 151 L618 151 L617 150 L614 149 L612 147 L611 147 L609 145 L608 145 L606 143 L605 143 L601 139 L600 139 L599 138 L598 138 L593 143 L593 144 L589 148 L588 151 L591 154 L592 154 L596 158 L597 158 L602 162 L603 162 L604 163 L607 164 L609 166 L610 166 L611 167 L613 167 L616 169 L618 169 L619 170 L621 170 L622 171 L625 171 L626 172 L630 172 L631 173 L636 173 L637 174 L655 174 L656 173 L661 173 L662 172 L665 172 L666 171 L669 171 L672 169 L674 169 L675 168 L676 168 L678 166 L681 165 L684 162 L685 162 L690 157 L690 156 L692 154 L692 153 L693 152 L693 151 L696 146 L696 142 L697 141 L697 124 L696 123 L696 120 L695 119 L695 117 L694 116 L694 115 L692 113 L692 112 L689 109 L689 108 L686 105 L685 105 L682 102 L679 101 L677 99 L676 99 L675 98 L673 98 L668 95 L665 95 L664 94 L662 94 L661 93 L658 93 L657 92 L654 92 L653 91 L650 91 L649 90 L646 90 L645 89 L642 89 L641 88 L638 88 L637 87 L634 87 L633 86 L631 86 L630 85 L628 85 L627 84 L626 84 L625 83 L624 83 L623 82 L620 81 L613 74 L613 73 L612 72 L612 70 L611 69 L611 60 L613 57 L613 55 L615 53 L615 52 L619 48 L620 48 L622 46 L623 46 L626 44 L628 44 L629 43 L631 43 L632 42 L637 42 L638 41 L646 41 L647 42 L653 42 L654 43 L657 43 L658 44 L660 44 L661 45 L663 45 L666 47 L668 47 L669 48 L670 48 L672 50 L675 51 L677 53 L678 53 L683 57 L684 57 L686 55 L686 54 L688 52 L688 51 L691 48 L691 47 L693 45 L693 43 L691 41 L690 41 L687 38 L686 38 L684 36 L683 36 L682 35 L681 35 L680 34 L679 34 L678 33 L677 33 L672 30 L670 30 L669 29 L667 29 L666 28 L664 28 L663 27 L659 27 L658 26 L652 26 L651 25 L635 25 L634 26 Z M452 5 L448 1 L447 1 L446 0 L441 0 L440 1 L439 1 L437 3 L436 3 L432 7 L431 7 L428 10 L427 10 L424 13 L423 13 L419 17 L418 17 L415 20 L414 20 L411 23 L410 23 L407 26 L406 26 L403 29 L402 29 L398 33 L397 33 L394 36 L393 36 L389 40 L388 40 L386 42 L385 42 L382 45 L381 45 L376 50 L375 50 L372 53 L371 53 L368 56 L367 56 L364 59 L363 59 L360 62 L359 62 L350 70 L349 70 L346 73 L345 73 L342 76 L341 76 L338 79 L337 79 L332 84 L331 84 L329 86 L328 86 L325 89 L324 89 L321 92 L320 92 L311 100 L310 100 L307 103 L306 103 L303 106 L302 106 L299 109 L298 109 L294 113 L293 113 L290 116 L289 116 L285 120 L284 120 L281 123 L280 123 L277 126 L276 126 L272 130 L271 130 L268 133 L267 133 L263 137 L262 137 L259 140 L258 140 L255 143 L254 143 L251 146 L250 146 L247 149 L246 149 L242 153 L241 153 L238 156 L237 156 L234 159 L233 159 L232 160 L232 161 L230 163 L230 166 L229 167 L229 182 L230 183 L230 185 L231 186 L231 187 L232 188 L233 188 L235 190 L236 190 L238 192 L239 192 L241 194 L242 194 L244 196 L245 196 L247 198 L248 198 L250 200 L251 200 L253 202 L254 202 L256 204 L257 204 L259 206 L262 206 L263 207 L264 207 L265 206 L267 206 L271 202 L271 200 L272 199 L272 197 L271 196 L271 194 L266 189 L265 189 L263 187 L262 187 L260 185 L259 185 L257 183 L256 183 L254 181 L253 181 L251 179 L250 179 L248 177 L247 177 L245 175 L245 174 L254 166 L255 166 L258 163 L259 163 L262 160 L263 160 L266 157 L267 157 L270 154 L271 154 L274 151 L275 151 L278 148 L279 148 L282 145 L283 145 L286 142 L287 142 L290 139 L291 139 L295 135 L296 135 L299 132 L300 132 L304 128 L305 128 L308 125 L309 125 L312 122 L313 122 L316 119 L317 119 L326 111 L327 111 L329 109 L330 109 L334 105 L335 105 L338 102 L339 102 L343 98 L344 98 L347 95 L348 95 L352 91 L353 91 L356 88 L357 88 L360 85 L361 85 L370 77 L371 77 L374 74 L375 74 L378 71 L379 71 L382 68 L383 68 L387 64 L388 64 L391 61 L392 61 L395 58 L396 58 L399 55 L400 55 L403 52 L404 52 L408 48 L409 48 L412 45 L413 45 L416 42 L417 42 L420 39 L421 39 L425 35 L426 35 L429 32 L430 32 L434 28 L435 28 L437 26 L438 26 L442 22 L443 22 L446 19 L447 19 L452 14 L452 13 L453 12 L453 7 L452 6 Z M1 5 L1 6 L0 7 L0 12 L1 13 L1 15 L4 18 L5 18 L8 21 L9 21 L12 24 L13 24 L16 27 L17 27 L21 31 L22 31 L25 34 L26 34 L30 38 L31 38 L34 41 L35 41 L38 44 L39 44 L48 52 L49 52 L52 55 L53 55 L56 58 L57 58 L60 61 L61 61 L64 64 L65 64 L69 68 L70 68 L73 71 L74 71 L78 75 L79 75 L82 78 L83 78 L87 82 L88 82 L91 85 L92 85 L96 89 L97 89 L100 92 L101 92 L105 96 L106 96 L110 100 L111 100 L114 103 L115 103 L118 106 L119 106 L123 110 L124 110 L127 113 L128 113 L131 116 L132 116 L135 119 L136 119 L140 123 L141 123 L144 126 L145 126 L147 128 L148 128 L157 136 L158 136 L161 139 L162 139 L165 142 L166 142 L169 145 L170 145 L173 148 L174 148 L177 151 L178 151 L182 155 L183 155 L190 161 L191 161 L193 163 L194 163 L199 168 L200 168 L202 170 L203 170 L207 174 L207 175 L204 178 L203 178 L201 180 L200 180 L198 182 L197 182 L194 185 L191 186 L189 188 L188 188 L186 190 L185 190 L182 193 L182 194 L181 195 L181 200 L184 205 L185 205 L186 206 L188 206 L189 207 L190 207 L191 206 L193 206 L194 205 L195 205 L198 202 L199 202 L201 200 L202 200 L204 198 L205 198 L207 196 L208 196 L210 194 L211 194 L213 192 L214 192 L216 190 L217 190 L219 188 L220 188 L220 187 L222 185 L222 181 L223 180 L223 172 L222 171 L222 164 L221 163 L221 162 L216 157 L215 157 L212 154 L211 154 L208 151 L207 151 L203 147 L202 147 L199 144 L198 144 L195 141 L194 141 L191 138 L190 138 L186 134 L185 134 L182 131 L181 131 L178 128 L177 128 L173 124 L172 124 L169 121 L168 121 L164 117 L163 117 L160 114 L159 114 L156 111 L155 111 L151 107 L150 107 L147 104 L146 104 L143 101 L142 101 L139 98 L138 98 L133 93 L132 93 L129 90 L128 90 L125 87 L124 87 L121 84 L120 84 L116 80 L115 80 L112 77 L111 77 L107 73 L106 73 L103 70 L102 70 L99 67 L98 67 L89 59 L88 59 L85 56 L84 56 L81 53 L80 53 L71 45 L70 45 L67 42 L66 42 L63 39 L62 39 L58 35 L57 35 L53 31 L52 31 L49 28 L48 28 L45 25 L44 25 L40 21 L39 21 L36 18 L35 18 L30 13 L29 13 L26 10 L25 10 L16 2 L15 2 L12 0 L7 0 L6 1 L5 1 Z"/>
</svg>
